<?xml version="1.0" encoding="UTF-8" standalone="no"?>
<!-- Generator: Adobe Illustrator 10.0, SVG Export Plug-In . SVG Version: 3.0.0 Build 77)
     Illustrator cruft removed and numeric constants truncated to conserve size -->

<svg
   xmlns:i="http://ns.adobe.com/AdobeIllustrator/10.0/"
   xmlns:dc="http://purl.org/dc/elements/1.1/"
   xmlns:cc="http://creativecommons.org/ns#"
   xmlns:rdf="http://www.w3.org/1999/02/22-rdf-syntax-ns#"
   xmlns:svg="http://www.w3.org/2000/svg"
   xmlns="http://www.w3.org/2000/svg"
   xmlns:sodipodi="http://sodipodi.sourceforge.net/DTD/sodipodi-0.dtd"
   xmlns:inkscape="http://www.inkscape.org/namespaces/inkscape"
   i:viewOrigin="155.7 161.0"
   i:rulerOrigin="-155 -137"
   i:pageBounds="155 162 345 137"
   width="188.6"
   height="22.8"
   viewBox="0 0 188.6 22.8"
   overflow="visible"
   enable-background="new 0 0 188.6 22.8"
   xml:space="preserve"
   id="svg2998"
   version="1.1"
   inkscape:version="0.48.2 r9819"
   sodipodi:docname="Sparkline_dowjones_new2.svg"><metadata
   id="metadata3009"><rdf:RDF><cc:Work
       rdf:about=""><dc:format>image/svg+xml</dc:format><dc:type
         rdf:resource="http://purl.org/dc/dcmitype/StillImage" /><dc:title></dc:title></cc:Work></rdf:RDF></metadata><defs
   id="defs3007">
		
		
	</defs><sodipodi:namedview
   pagecolor="#ffffff"
   bordercolor="#666666"
   borderopacity="1"
   objecttolerance="10"
   gridtolerance="10"
   guidetolerance="10"
   inkscape:pageopacity="0"
   inkscape:pageshadow="2"
   inkscape:window-width="1920"
   inkscape:window-height="1018"
   id="namedview3005"
   showgrid="false"
   inkscape:zoom="11.54"
   inkscape:cx="147.66106"
   inkscape:cy="6.1798502"
   inkscape:window-x="-8"
   inkscape:window-y="-8"
   inkscape:window-maximized="1"
   inkscape:current-layer="svg2998" />
	<path
   style="fill:none;stroke:#000000;stroke-width:0.70000002;stroke-miterlimit:4;stroke-dasharray:none"
   inkscape:connector-curvature="0"
   id="path3001"
   d="m 0,10 2.2,1.2 0.9,-1.8 2.1,0.3 2.2,0.3 0.9,-2.8 2.6,0.3 1.6,1.2 2.1,-0.8 1.6,0.7 1.6,-2 0.9,2.4 0.6,-0.7 2.6,0.2 0.6,-1.2 1.3,0.2 1.9,-1.4 1.3,0.2 0.6,-2 3.2,1.4 0.6,-1 4.2,0.1 1.3,1.7 1.6,-0.8 1.6,1.4 1.9,-3.6 1.6,-0.4 1.6,1.4 2.2,0.3 1.6,1.8 1.3,-1.9 2.6,4.5 0.6,-2.4 h 1.9 l 2.2,-5.3 0.3,-0.7 1.9,0.1 1.3,0.6 0.6,3 2.2,-1.9 1.6,1.9 1.6,-3.6 1.9,1 2.9,-1.7 0.9,3.9 0.6,-1.4 1.3,6.8 1.3,-2.3 3.8,-0.8 2.9,2.8 0.9,4.3 0.9,0.8 h 2.9 v -1.2 l 2.9,1.4 1.6,-3.6 1.9,-2.5 1.9,-1 0.9,3.1 2.6,-2 0.3,1.4 3.5,-0.7 0.3,-5.6 1.3,0.2 1.3,-3 0.6,2.8 1.9,-1.3 1.9,0.6 2.9,1.3 1.3,-2.6 0.9,3.4 1.3,-0.9 1.6,1.9 0.9,-3.2 3.9,1.9 2.2,5 1.9,-0.3 0.3,3.1 2.6,-1.3 5.2,1.1 1.3,-2 2.6,0.6 2.2,-0.6 2.2,2.5 1.3,-1.8 2.2,0.4 1.6,-0.9 1.6,6.1 2.2,0.6 1.3,5.6 0.9,-3.1 1.3,1.7 1.6,-1.7 2.2,-2.4 0.6,1.3 2.2,-1.5 1.9,0.3 2.9,0.6 0.6,1.9 1.6,-2.6 2.6,1.3 1.3,2 1.9,-3.2 h 1.6 l 3.5,0.9 4.8,1.7"
   i:knockout="Off" /><path
   style="fill:#fb0f0c;stroke-width:0.70000005;stroke-miterlimit:4;stroke-dasharray:none"
   inkscape:connector-curvature="0"
   id="path3003"
   d="m 186.28683,21.433276 c 2.29589,0.136666 1.83238,-3.23331 0,-2.893241 -1.66433,0.30888 -1.88727,2.780898 0,2.893241 z"
   i:knockout="Off"
   sodipodi:nodetypes="sss" />
</svg>